<?xml version="1.0" encoding="utf-8"?>
<svg fill="#ae31f2" width="800px" height="800px" viewBox="0 0 32.00 32.00" version="1.1" xmlns="http://www.w3.org/2000/svg" stroke="#ae31f2" stroke-width="0.00032">
  <defs>
    <radialGradient gradientUnits="userSpaceOnUse" cx="15.999" cy="16" r="12.375" id="gradient-1">
      <stop offset="0" style="stop-color: rgb(255, 105, 252);"/>
      <stop offset="1" style="stop-color: rgb(45.449% 0% 71.811%)"/>
    </radialGradient>
    <radialGradient gradientUnits="userSpaceOnUse" cx="8.794" cy="12.489" r="12.375" id="gradient-3">
      <stop offset="0" style="stop-color: rgb(105, 255, 198);"/>
      <stop offset="1" style="stop-color: rgb(45.449% 0% 71.811%)"/>
    </radialGradient>
  </defs>
  <g id="SVGRepo_bgCarrier" stroke-width="0"/>
  <g id="SVGRepo_tracerCarrier" stroke-linecap="round" stroke-linejoin="round" stroke="#f5f5f5" stroke-width="1.472">
    <title>alien-head</title>
  </g>
  <g id="SVGRepo_iconCarrier">
    <path d="M 15.959 1.25 C 14.299 1.25 12.697 1.637 11.229 2.296 C 9.761 2.955 8.427 3.887 7.3 4.976 C 6.173 6.066 5.254 7.314 4.617 8.606 C 3.98 9.898 3.624 11.234 3.624 12.5 C 3.624 13.666 4.285 15.289 5.294 17.089 C 6.304 18.89 7.663 20.867 9.06 22.741 C 10.457 24.616 11.891 26.386 13.051 27.773 C 14.212 29.16 15.098 30.162 15.399 30.5 C 15.434 30.539 15.472 30.574 15.513 30.604 C 15.555 30.635 15.6 30.662 15.647 30.683 C 15.695 30.705 15.745 30.721 15.797 30.733 C 15.849 30.744 15.903 30.75 15.958 30.75 L 15.959 30.75 L 15.959 30.75 L 15.96 30.75 L 15.96 30.75 C 16.016 30.75 16.069 30.744 16.121 30.733 C 16.173 30.722 16.223 30.705 16.27 30.684 C 16.317 30.663 16.362 30.636 16.403 30.606 C 16.444 30.576 16.482 30.541 16.516 30.503 L 16.517 30.503 L 16.517 30.503 L 16.517 30.503 L 16.517 30.502 C 16.821 30.164 17.714 29.161 18.882 27.775 C 20.051 26.388 21.495 24.617 22.901 22.743 C 24.308 20.869 25.676 18.891 26.693 17.09 C 27.71 15.29 28.375 13.666 28.375 12.5 C 28.375 11.234 28.017 9.898 27.376 8.606 C 26.734 7.314 25.809 6.066 24.675 4.976 C 23.541 3.887 22.198 2.955 20.721 2.296 C 19.243 1.637 17.631 1.25 15.959 1.25 Z M 15.961 28.869 C 15.091 27.873 13.979 26.557 12.8 25.092 C 11.621 23.626 10.375 22.012 9.238 20.42 C 8.101 18.828 7.072 17.257 6.328 15.88 C 5.584 14.503 5.124 13.32 5.124 12.5 C 5.124 11.519 5.409 10.418 5.933 9.32 C 6.458 8.222 7.224 7.126 8.185 6.153 C 9.147 5.18 10.305 4.329 11.615 3.721 C 12.925 3.114 14.388 2.75 15.959 2.75 C 17.404 2.75 18.808 3.091 20.102 3.669 C 21.396 4.247 22.58 5.063 23.583 6.013 C 24.587 6.963 25.41 8.048 25.982 9.163 C 26.554 10.279 26.875 11.425 26.875 12.5 C 26.875 13.319 26.412 14.502 25.662 15.879 C 24.913 17.256 23.877 18.826 22.731 20.419 C 21.586 22.011 20.331 23.626 19.144 25.091 C 17.957 26.557 16.837 27.873 15.961 28.869 Z M 14.107 12.803 C 14.028 12.63 13.936 12.464 13.832 12.308 C 13.729 12.152 13.615 12.006 13.491 11.869 C 13.367 11.733 13.233 11.607 13.09 11.492 C 12.946 11.377 12.794 11.274 12.634 11.182 L 12.629 11.18 L 12.625 11.178 L 12.621 11.176 L 12.617 11.173 C 12.482 11.109 12.341 11.051 12.195 11 C 12.049 10.95 11.898 10.907 11.744 10.871 C 11.589 10.836 11.43 10.809 11.269 10.791 C 11.107 10.773 10.942 10.763 10.775 10.763 C 10.756 10.763 10.737 10.763 10.719 10.764 C 10.7 10.764 10.682 10.765 10.663 10.765 C 10.644 10.766 10.625 10.766 10.607 10.767 C 10.588 10.767 10.57 10.768 10.551 10.769 L 10.554 10.769 L 10.556 10.769 L 10.558 10.769 L 10.561 10.769 L 10.096 10.778 L 9.632 10.786 L 9.168 10.795 L 8.704 10.803 C 8.664 10.806 8.624 10.81 8.585 10.817 C 8.546 10.824 8.508 10.833 8.471 10.843 C 8.433 10.854 8.397 10.867 8.362 10.881 C 8.327 10.896 8.293 10.912 8.26 10.93 L 8.261 10.93 L 8.263 10.929 L 8.264 10.928 L 8.266 10.927 C 8.253 10.935 8.241 10.942 8.23 10.95 C 8.218 10.958 8.207 10.967 8.196 10.975 C 8.185 10.984 8.174 10.992 8.164 11.001 C 8.153 11.01 8.143 11.019 8.134 11.029 C 8.098 11.068 8.065 11.111 8.035 11.156 C 8.006 11.201 7.979 11.248 7.957 11.298 C 7.934 11.347 7.916 11.399 7.902 11.453 C 7.887 11.506 7.877 11.561 7.872 11.618 L 7.872 11.619 L 7.872 11.62 L 7.872 11.621 L 7.872 11.622 C 7.87 11.646 7.869 11.672 7.868 11.698 C 7.867 11.724 7.866 11.75 7.865 11.778 C 7.864 11.805 7.864 11.833 7.864 11.862 C 7.863 11.89 7.863 11.918 7.863 11.947 C 7.863 12.184 7.877 12.418 7.903 12.648 C 7.93 12.877 7.969 13.103 8.021 13.325 C 8.073 13.546 8.136 13.762 8.212 13.974 C 8.287 14.185 8.374 14.39 8.471 14.59 L 8.467 14.581 L 8.463 14.572 L 8.459 14.563 L 8.455 14.554 C 8.556 14.763 8.674 14.961 8.809 15.144 C 8.944 15.327 9.095 15.496 9.26 15.649 C 9.425 15.802 9.604 15.94 9.795 16.06 C 9.986 16.179 10.189 16.281 10.402 16.363 L 10.408 16.365 L 10.414 16.367 L 10.42 16.369 L 10.426 16.371 C 10.528 16.403 10.634 16.431 10.743 16.456 C 10.851 16.481 10.963 16.502 11.078 16.519 C 11.192 16.536 11.309 16.549 11.428 16.558 C 11.547 16.566 11.667 16.571 11.789 16.571 C 11.808 16.571 11.828 16.571 11.847 16.571 C 11.866 16.571 11.885 16.57 11.904 16.57 C 11.923 16.569 11.943 16.569 11.962 16.568 C 11.981 16.567 12 16.566 12.019 16.565 L 12.016 16.565 L 12.014 16.565 L 12.011 16.565 L 12.008 16.565 L 12.045 16.565 L 12.083 16.565 L 12.12 16.565 L 12.158 16.565 L 12.573 16.564 L 12.988 16.563 L 13.402 16.562 L 13.817 16.561 C 13.819 16.561 13.821 16.561 13.823 16.561 C 13.825 16.561 13.827 16.561 13.83 16.561 C 13.832 16.561 13.834 16.561 13.837 16.561 C 13.839 16.561 13.841 16.561 13.844 16.561 C 13.902 16.561 13.959 16.556 14.015 16.545 C 14.07 16.535 14.123 16.52 14.175 16.5 C 14.226 16.48 14.275 16.456 14.321 16.428 C 14.368 16.4 14.411 16.368 14.452 16.332 L 14.452 16.332 L 14.452 16.333 L 14.451 16.333 L 14.451 16.333 C 14.493 16.283 14.532 16.23 14.566 16.174 C 14.599 16.117 14.628 16.057 14.652 15.995 C 14.675 15.932 14.694 15.867 14.706 15.8 C 14.718 15.732 14.725 15.663 14.725 15.592 C 14.725 15.585 14.725 15.579 14.725 15.573 C 14.725 15.566 14.724 15.56 14.724 15.554 C 14.724 15.547 14.724 15.541 14.723 15.535 C 14.723 15.529 14.722 15.522 14.722 15.516 L 14.722 15.517 L 14.722 15.518 L 14.722 15.518 L 14.722 15.519 L 14.714 15.451 L 14.706 15.384 L 14.698 15.316 L 14.69 15.248 C 14.675 15.024 14.651 14.804 14.618 14.588 C 14.585 14.372 14.543 14.16 14.493 13.952 C 14.442 13.744 14.382 13.54 14.315 13.341 C 14.247 13.141 14.171 12.945 14.087 12.754 L 14.092 12.766 L 14.097 12.778 L 14.101 12.789 L 14.106 12.801 L 14.106 12.801 L 14.107 12.802 L 14.107 12.802 Z M 12.09 15.065 C 12.073 15.066 12.054 15.067 12.035 15.068 C 12.017 15.069 11.997 15.07 11.978 15.07 C 11.958 15.071 11.938 15.071 11.917 15.072 C 11.897 15.072 11.877 15.072 11.856 15.072 C 11.773 15.072 11.69 15.069 11.607 15.064 C 11.525 15.058 11.443 15.051 11.362 15.04 C 11.281 15.029 11.201 15.016 11.122 15 C 11.043 14.984 10.965 14.966 10.887 14.945 L 10.894 14.946 L 10.9 14.948 L 10.907 14.949 L 10.913 14.951 C 10.789 14.899 10.671 14.837 10.56 14.766 C 10.45 14.694 10.347 14.613 10.253 14.523 C 10.159 14.434 10.074 14.336 9.998 14.23 C 9.923 14.125 9.857 14.013 9.802 13.894 L 9.801 13.891 L 9.8 13.887 L 9.799 13.884 L 9.797 13.881 C 9.74 13.765 9.688 13.644 9.641 13.519 C 9.594 13.395 9.553 13.266 9.517 13.134 C 9.482 13.001 9.452 12.866 9.429 12.727 C 9.406 12.589 9.39 12.448 9.38 12.305 L 9.38 12.301 L 9.38 12.298 L 9.38 12.295 L 9.379 12.292 C 9.427 12.291 9.474 12.29 9.522 12.289 C 9.569 12.289 9.617 12.288 9.664 12.287 C 9.712 12.286 9.759 12.285 9.807 12.283 C 9.854 12.282 9.902 12.281 9.949 12.28 L 10.109 12.276 L 10.268 12.273 L 10.427 12.27 L 10.586 12.267 C 10.602 12.265 10.618 12.264 10.635 12.263 C 10.651 12.262 10.669 12.261 10.686 12.261 C 10.704 12.26 10.721 12.26 10.739 12.26 C 10.757 12.259 10.776 12.259 10.794 12.259 C 10.896 12.259 10.996 12.265 11.094 12.275 C 11.192 12.286 11.289 12.302 11.384 12.322 C 11.48 12.343 11.573 12.368 11.664 12.398 C 11.756 12.428 11.845 12.463 11.931 12.502 L 11.927 12.5 L 11.923 12.498 L 11.919 12.497 L 11.914 12.495 C 12.007 12.552 12.095 12.615 12.177 12.683 C 12.26 12.752 12.337 12.827 12.407 12.906 C 12.478 12.986 12.543 13.071 12.601 13.16 C 12.659 13.249 12.71 13.343 12.753 13.441 L 12.755 13.444 L 12.756 13.447 L 12.757 13.451 L 12.758 13.454 C 12.81 13.572 12.858 13.694 12.901 13.82 C 12.944 13.946 12.983 14.077 13.017 14.21 C 13.051 14.343 13.08 14.48 13.104 14.619 C 13.127 14.758 13.145 14.899 13.157 15.042 L 13.158 15.047 L 13.158 15.051 L 13.158 15.056 L 13.158 15.061 L 12.891 15.062 L 12.624 15.063 L 12.357 15.064 Z M 23.768 11.013 C 23.761 11.006 23.753 11 23.744 10.993 C 23.736 10.987 23.728 10.98 23.72 10.974 C 23.711 10.968 23.703 10.961 23.694 10.955 C 23.686 10.949 23.677 10.943 23.668 10.937 L 23.668 10.937 L 23.667 10.936 L 23.666 10.936 L 23.665 10.935 C 23.631 10.915 23.595 10.898 23.558 10.882 C 23.521 10.867 23.482 10.853 23.442 10.842 C 23.403 10.83 23.362 10.821 23.32 10.815 C 23.278 10.808 23.236 10.804 23.192 10.802 L 23.192 10.802 L 23.191 10.802 L 23.191 10.802 L 23.19 10.802 L 22.732 10.794 L 22.273 10.785 L 21.815 10.777 L 21.356 10.769 C 21.338 10.768 21.32 10.767 21.301 10.766 C 21.282 10.765 21.262 10.765 21.242 10.764 C 21.222 10.764 21.202 10.763 21.181 10.763 C 21.161 10.762 21.14 10.762 21.119 10.762 C 20.954 10.762 20.791 10.772 20.631 10.79 C 20.471 10.809 20.313 10.836 20.159 10.872 C 20.005 10.908 19.854 10.952 19.706 11.004 C 19.559 11.056 19.416 11.117 19.276 11.184 L 19.283 11.181 L 19.289 11.178 L 19.295 11.176 L 19.301 11.173 C 19.137 11.267 18.982 11.373 18.836 11.488 C 18.691 11.604 18.555 11.731 18.43 11.866 C 18.306 12.001 18.192 12.146 18.09 12.298 C 17.988 12.451 17.897 12.613 17.819 12.781 L 17.817 12.787 L 17.815 12.792 L 17.813 12.798 L 17.81 12.803 C 17.732 12.982 17.66 13.167 17.595 13.359 C 17.53 13.55 17.473 13.748 17.423 13.95 C 17.374 14.153 17.333 14.36 17.301 14.571 C 17.268 14.783 17.245 14.998 17.23 15.215 L 17.23 15.221 L 17.23 15.226 L 17.23 15.232 L 17.229 15.237 L 17.221 15.306 L 17.213 15.375 L 17.205 15.445 L 17.196 15.514 C 17.194 15.527 17.191 15.54 17.189 15.553 C 17.187 15.566 17.186 15.58 17.184 15.594 C 17.183 15.608 17.182 15.622 17.181 15.637 C 17.181 15.651 17.18 15.666 17.18 15.68 C 17.18 15.745 17.187 15.808 17.2 15.868 C 17.213 15.929 17.233 15.987 17.257 16.042 C 17.282 16.098 17.312 16.15 17.347 16.199 C 17.382 16.248 17.422 16.293 17.466 16.333 L 17.467 16.333 L 17.467 16.333 L 17.467 16.334 L 17.467 16.334 C 17.511 16.367 17.558 16.397 17.606 16.424 C 17.655 16.45 17.706 16.473 17.758 16.492 C 17.811 16.512 17.866 16.527 17.923 16.539 C 17.979 16.551 18.037 16.558 18.096 16.561 L 18.097 16.561 L 18.098 16.561 L 18.099 16.561 L 18.099 16.561 L 18.563 16.562 L 19.027 16.563 L 19.491 16.564 L 19.954 16.565 C 19.969 16.566 19.984 16.566 19.999 16.567 C 20.015 16.567 20.031 16.568 20.047 16.568 C 20.063 16.569 20.08 16.569 20.096 16.569 C 20.113 16.569 20.13 16.569 20.147 16.569 C 20.267 16.569 20.386 16.565 20.504 16.556 C 20.622 16.547 20.738 16.534 20.853 16.516 C 20.968 16.498 21.082 16.476 21.194 16.45 C 21.306 16.424 21.417 16.395 21.526 16.361 L 21.518 16.364 L 21.51 16.366 L 21.502 16.368 L 21.493 16.37 C 21.712 16.286 21.919 16.183 22.113 16.062 C 22.307 15.942 22.488 15.805 22.653 15.652 C 22.819 15.5 22.97 15.332 23.104 15.152 C 23.237 14.972 23.354 14.779 23.452 14.575 L 23.455 14.57 L 23.457 14.565 L 23.459 14.56 L 23.461 14.554 C 23.555 14.365 23.639 14.168 23.712 13.963 C 23.786 13.758 23.848 13.546 23.899 13.328 C 23.95 13.111 23.989 12.887 24.015 12.659 C 24.041 12.432 24.055 12.199 24.055 11.963 C 24.055 11.936 24.055 11.909 24.054 11.882 C 24.054 11.855 24.054 11.828 24.053 11.801 C 24.052 11.774 24.051 11.747 24.05 11.72 C 24.049 11.693 24.048 11.667 24.046 11.64 L 24.047 11.644 L 24.047 11.647 L 24.047 11.651 L 24.047 11.655 C 24.044 11.592 24.035 11.531 24.021 11.472 C 24.007 11.413 23.987 11.356 23.963 11.302 C 23.939 11.248 23.911 11.196 23.878 11.147 C 23.845 11.099 23.808 11.054 23.767 11.012 L 23.768 11.012 L 23.768 11.012 L 23.768 11.013 Z M 22.119 13.883 C 22.063 14.005 21.997 14.12 21.921 14.227 C 21.845 14.334 21.76 14.433 21.666 14.523 C 21.573 14.613 21.472 14.695 21.363 14.766 C 21.255 14.837 21.14 14.897 21.018 14.947 L 21.015 14.948 L 21.011 14.949 L 21.008 14.95 L 21.004 14.952 C 20.931 14.971 20.855 14.989 20.776 15.004 C 20.698 15.019 20.618 15.031 20.536 15.042 C 20.454 15.052 20.371 15.06 20.286 15.066 C 20.201 15.071 20.115 15.074 20.028 15.074 C 20.005 15.074 19.981 15.074 19.958 15.073 C 19.935 15.073 19.912 15.072 19.889 15.072 C 19.866 15.071 19.843 15.07 19.82 15.069 C 19.797 15.068 19.774 15.066 19.751 15.065 L 19.754 15.065 L 19.757 15.065 L 19.76 15.065 L 19.763 15.066 L 19.512 15.065 L 19.261 15.065 L 19.01 15.064 L 18.759 15.064 C 18.772 14.916 18.791 14.771 18.814 14.629 C 18.838 14.487 18.868 14.347 18.902 14.211 C 18.937 14.074 18.976 13.94 19.021 13.809 C 19.066 13.678 19.116 13.549 19.171 13.423 L 19.168 13.431 L 19.165 13.44 L 19.162 13.448 L 19.158 13.457 C 19.204 13.356 19.257 13.26 19.315 13.169 C 19.374 13.078 19.438 12.992 19.509 12.912 C 19.58 12.832 19.656 12.758 19.737 12.689 C 19.818 12.621 19.904 12.559 19.994 12.503 L 19.997 12.502 L 19.999 12.501 L 20.001 12.499 L 20.003 12.498 C 20.087 12.461 20.174 12.428 20.264 12.399 C 20.354 12.37 20.447 12.345 20.542 12.325 C 20.638 12.305 20.735 12.289 20.835 12.279 C 20.934 12.268 21.036 12.263 21.138 12.263 C 21.155 12.263 21.172 12.263 21.188 12.264 C 21.205 12.264 21.222 12.264 21.238 12.265 C 21.255 12.265 21.272 12.266 21.288 12.267 C 21.305 12.268 21.322 12.269 21.338 12.27 L 21.336 12.27 L 21.333 12.27 L 21.331 12.269 L 21.329 12.269 L 21.489 12.272 L 21.649 12.276 L 21.81 12.279 L 21.97 12.282 C 22.018 12.283 22.066 12.284 22.113 12.285 C 22.161 12.287 22.208 12.288 22.255 12.289 C 22.302 12.29 22.35 12.291 22.397 12.291 C 22.444 12.292 22.491 12.293 22.538 12.294 C 22.528 12.44 22.511 12.584 22.488 12.725 C 22.465 12.865 22.435 13.003 22.399 13.138 C 22.362 13.272 22.32 13.404 22.271 13.533 C 22.222 13.661 22.167 13.787 22.107 13.909 L 22.109 13.903 L 22.112 13.897 L 22.115 13.89 L 22.118 13.884 L 22.118 13.883 Z" style="stroke: white; stroke-width: 0.3px; paint-order: fill; fill-rule: evenodd; fill: url(&quot;#gradient-1&quot;); mix-blend-mode: multiply;"/>
    <path d="M 20.721 2.296 C 22.198 2.955 23.541 3.887 24.675 4.976 C 25.809 6.066 26.734 7.314 27.376 8.606 C 28.017 9.898 28.375 11.234 28.375 12.5 C 28.375 13.666 27.71 15.29 26.693 17.09 C 25.676 18.891 24.308 20.869 22.901 22.743 C 21.495 24.617 20.051 26.388 18.882 27.775 C 17.714 29.161 16.821 30.164 16.517 30.502 L 16.517 30.503 L 16.516 30.503 C 16.482 30.541 16.444 30.576 16.403 30.606 C 16.362 30.636 16.317 30.663 16.27 30.684 C 16.223 30.705 16.173 30.722 16.121 30.733 C 16.069 30.744 16.016 30.75 15.96 30.75 L 15.958 30.75 C 15.903 30.75 15.849 30.744 15.797 30.733 C 15.745 30.721 15.695 30.705 15.647 30.683 C 15.6 30.662 15.555 30.635 15.513 30.604 C 15.472 30.574 15.434 30.539 15.399 30.5 C 15.098 30.162 14.212 29.16 13.051 27.773 C 11.891 26.386 10.457 24.616 9.06 22.741 C 7.663 20.867 6.304 18.89 5.294 17.089 C 4.285 15.289 3.624 13.666 3.624 12.5 C 3.624 11.234 3.98 9.898 4.617 8.606 C 5.254 7.314 6.173 6.066 7.3 4.976 C 8.427 3.887 9.761 2.955 11.229 2.296 C 12.697 1.637 14.299 1.25 15.959 1.25 C 17.631 1.25 19.243 1.637 20.721 2.296 Z M 15.959 1.25 C 14.299 1.25 12.697 1.637 11.229 2.296 C 9.761 2.955 8.427 3.887 7.3 4.976 C 6.173 6.066 5.254 7.314 4.617 8.606 C 3.98 9.898 3.624 11.234 3.624 12.5 C 3.624 13.666 4.285 15.289 5.294 17.089 C 6.304 18.89 7.663 20.867 9.06 22.741 C 10.457 24.616 11.891 26.386 13.051 27.773 C 14.212 29.16 15.098 30.162 15.399 30.5 C 15.434 30.539 15.472 30.574 15.513 30.604 C 15.555 30.635 15.6 30.662 15.647 30.683 C 15.695 30.705 15.745 30.721 15.797 30.733 C 15.849 30.744 15.903 30.75 15.958 30.75 L 15.96 30.75 C 16.016 30.75 16.069 30.744 16.121 30.733 C 16.173 30.722 16.223 30.705 16.27 30.684 C 16.317 30.663 16.362 30.636 16.403 30.606 C 16.444 30.576 16.482 30.541 16.516 30.503 L 16.517 30.503 L 16.517 30.502 C 16.821 30.164 17.714 29.161 18.882 27.775 C 20.051 26.388 21.495 24.617 22.901 22.743 C 24.308 20.869 25.676 18.891 26.693 17.09 C 27.71 15.29 28.375 13.666 28.375 12.5 C 28.375 11.234 28.017 9.898 27.376 8.606 C 26.734 7.314 25.809 6.066 24.675 4.976 C 23.541 3.887 22.198 2.955 20.721 2.296 C 19.243 1.637 17.631 1.25 15.959 1.25 Z M 15.961 28.869 C 15.091 27.873 13.979 26.557 12.8 25.092 C 11.621 23.626 10.375 22.012 9.238 20.42 C 8.101 18.828 7.072 17.257 6.328 15.88 C 5.584 14.503 5.124 13.32 5.124 12.5 C 5.124 11.519 5.409 10.418 5.933 9.32 C 6.458 8.222 7.224 7.126 8.185 6.153 C 9.147 5.18 10.305 4.329 11.615 3.721 C 12.925 3.114 14.388 2.75 15.959 2.75 C 17.404 2.75 18.808 3.091 20.102 3.669 C 21.396 4.247 22.58 5.063 23.583 6.013 C 24.587 6.963 25.41 8.048 25.982 9.163 C 26.554 10.279 26.875 11.425 26.875 12.5 C 26.875 13.319 26.412 14.502 25.662 15.879 C 24.913 17.256 23.877 18.826 22.731 20.419 C 21.586 22.011 20.331 23.626 19.144 25.091 C 17.957 26.557 16.837 27.873 15.961 28.869 Z M 19.144 25.091 C 20.331 23.626 21.586 22.011 22.731 20.419 C 23.877 18.826 24.913 17.256 25.662 15.879 C 26.412 14.502 26.875 13.319 26.875 12.5 C 26.875 11.425 26.554 10.279 25.982 9.163 C 25.41 8.048 24.587 6.963 23.583 6.013 C 22.58 5.063 21.396 4.247 20.102 3.669 C 18.808 3.091 17.404 2.75 15.959 2.75 C 14.388 2.75 12.925 3.114 11.615 3.721 C 10.674 3.215 14.205 4.231 16.389 18.864 C 16.705 20.98 5.577 14.562 6.328 15.88 C 7.079 17.198 8.101 18.828 9.238 20.42 C 10.375 22.012 11.621 23.626 12.8 25.092 C 13.979 26.557 15.091 27.873 15.961 28.869 C 16.837 27.873 17.957 26.557 19.144 25.091 Z M 14.107 12.803 C 14.107 12.802 14.106 12.802 14.106 12.801 L 14.106 12.8 L 14.107 12.802 L 14.107 12.804 L 14.107 12.803 Z M 14.107 12.802 Z M 14.102 12.791 L 14.101 12.789 L 14.097 12.778 L 14.087 12.754 C 14.171 12.945 14.247 13.141 14.315 13.341 C 14.382 13.54 14.442 13.744 14.493 13.952 C 14.543 14.16 14.585 14.372 14.618 14.588 C 14.651 14.804 14.675 15.024 14.69 15.248 L 14.706 15.384 L 14.714 15.451 L 14.722 15.516 C 14.722 15.522 14.723 15.529 14.723 15.535 C 14.724 15.541 14.724 15.547 14.724 15.554 C 14.724 15.56 14.725 15.566 14.725 15.573 C 14.725 15.579 14.725 15.585 14.725 15.592 C 14.725 15.663 14.718 15.732 14.706 15.8 C 14.694 15.867 14.675 15.932 14.652 15.995 C 14.628 16.057 14.599 16.117 14.566 16.174 C 14.532 16.23 14.494 16.282 14.452 16.332 L 14.452 16.333 L 14.451 16.333 C 14.41 16.369 14.368 16.4 14.321 16.428 C 14.275 16.456 14.226 16.48 14.175 16.5 C 14.123 16.52 14.07 16.535 14.015 16.545 C 13.959 16.556 13.902 16.561 13.844 16.561 C 13.841 16.561 13.839 16.561 13.837 16.561 C 13.834 16.561 13.832 16.561 13.83 16.561 C 13.827 16.561 13.825 16.561 13.823 16.561 C 13.821 16.561 13.819 16.561 13.817 16.561 L 13.402 16.562 L 12.988 16.563 L 12.158 16.565 L 12.019 16.565 C 12 16.566 11.981 16.567 11.962 16.568 C 11.943 16.569 11.923 16.569 11.904 16.57 C 11.885 16.57 11.866 16.571 11.847 16.571 C 11.828 16.571 11.808 16.571 11.789 16.571 C 11.667 16.571 11.547 16.566 11.428 16.558 C 11.309 16.549 11.192 16.536 11.078 16.519 C 10.963 16.502 10.851 16.481 10.743 16.456 C 10.634 16.431 10.528 16.403 10.426 16.371 L 10.402 16.363 C 10.189 16.281 9.986 16.179 9.795 16.06 C 9.604 15.94 9.425 15.802 9.26 15.649 C 9.095 15.496 8.944 15.327 8.809 15.144 C 8.674 14.961 8.559 14.769 8.459 14.563 L 8.471 14.59 C 8.374 14.39 8.287 14.185 8.212 13.974 C 8.136 13.762 8.073 13.546 8.021 13.325 C 7.969 13.103 7.93 12.877 7.903 12.648 C 7.877 12.418 7.863 12.184 7.863 11.947 C 7.863 11.918 7.863 11.89 7.864 11.862 C 7.864 11.833 7.864 11.805 7.865 11.778 C 7.866 11.75 7.867 11.724 7.868 11.698 C 7.869 11.672 7.87 11.646 7.872 11.622 L 7.872 11.618 C 7.877 11.561 7.887 11.506 7.902 11.453 C 7.916 11.399 7.934 11.347 7.957 11.298 C 7.979 11.248 8.006 11.201 8.035 11.156 C 8.065 11.111 8.098 11.068 8.134 11.029 C 8.143 11.019 8.153 11.01 8.164 11.001 C 8.174 10.992 8.185 10.984 8.196 10.975 C 8.207 10.967 8.218 10.958 8.23 10.95 C 8.239 10.943 8.25 10.937 8.26 10.93 L 8.259 10.93 L 8.26 10.93 C 8.293 10.912 8.327 10.896 8.362 10.881 C 8.397 10.867 8.433 10.854 8.471 10.843 C 8.508 10.833 8.546 10.824 8.585 10.817 C 8.624 10.81 8.664 10.806 8.704 10.803 L 9.168 10.795 L 9.632 10.786 L 10.096 10.778 L 10.551 10.769 C 10.57 10.768 10.588 10.767 10.607 10.767 C 10.625 10.766 10.644 10.766 10.663 10.765 C 10.682 10.765 10.7 10.764 10.719 10.764 C 10.737 10.763 10.756 10.763 10.775 10.763 C 10.942 10.763 11.107 10.773 11.269 10.791 C 11.43 10.809 11.589 10.836 11.744 10.871 C 11.898 10.907 12.049 10.95 12.195 11 C 12.341 11.051 12.482 11.109 12.617 11.173 L 12.621 11.176 L 12.629 11.18 L 12.634 11.182 C 12.794 11.274 12.946 11.377 13.09 11.492 C 13.233 11.607 13.367 11.733 13.491 11.869 C 13.615 12.006 13.729 12.152 13.832 12.308 C 13.935 12.463 14.024 12.622 14.102 12.791 Z M 14.105 12.799 C 14.026 12.627 13.935 12.463 13.832 12.308 C 13.729 12.152 13.615 12.006 13.491 11.869 C 13.367 11.733 13.233 11.607 13.09 11.492 C 12.946 11.377 12.794 11.274 12.634 11.182 L 12.629 11.18 L 12.621 11.176 L 12.617 11.173 C 12.482 11.109 12.341 11.051 12.195 11 C 12.049 10.95 11.898 10.907 11.744 10.871 C 11.589 10.836 11.43 10.809 11.269 10.791 C 11.107 10.773 10.942 10.763 10.775 10.763 C 10.756 10.763 10.737 10.763 10.719 10.764 C 10.7 10.764 10.682 10.765 10.663 10.765 C 10.644 10.766 10.625 10.766 10.607 10.767 C 10.588 10.767 10.574 10.768 10.557 10.769 L 10.561 10.769 L 10.096 10.778 L 9.632 10.786 L 9.168 10.795 L 8.704 10.803 C 8.664 10.806 8.624 10.81 8.585 10.817 C 8.546 10.824 8.508 10.833 8.471 10.843 C 8.433 10.854 8.397 10.867 8.362 10.881 C 8.329 10.895 8.297 10.91 8.266 10.927 C 8.265 10.928 8.264 10.928 8.263 10.929 L 8.262 10.929 L 8.263 10.928 C 8.263 10.929 8.262 10.929 8.261 10.93 L 8.262 10.93 C 8.25 10.937 8.24 10.943 8.23 10.95 C 8.218 10.958 8.207 10.967 8.196 10.975 C 8.185 10.984 8.174 10.992 8.164 11.001 C 8.153 11.01 8.143 11.019 8.134 11.029 C 8.098 11.068 8.065 11.111 8.035 11.156 C 8.006 11.201 7.979 11.248 7.957 11.298 C 7.934 11.347 7.916 11.399 7.902 11.453 C 7.887 11.506 7.877 11.561 7.872 11.618 L 7.872 11.622 C 7.87 11.646 7.869 11.672 7.868 11.698 C 7.867 11.724 7.866 11.75 7.865 11.778 C 7.864 11.805 7.864 11.833 7.864 11.862 C 7.863 11.89 7.863 11.918 7.863 11.947 C 7.863 12.184 7.877 12.418 7.903 12.648 C 7.93 12.877 7.969 13.103 8.021 13.325 C 8.073 13.546 8.136 13.762 8.212 13.974 C 8.287 14.185 8.372 14.384 8.467 14.581 L 8.455 14.554 C 8.556 14.763 8.674 14.961 8.809 15.144 C 8.944 15.327 9.095 15.496 9.26 15.649 C 9.425 15.802 9.604 15.94 9.795 16.06 C 9.986 16.179 10.189 16.281 10.402 16.363 L 10.426 16.371 C 10.528 16.403 10.634 16.431 10.743 16.456 C 10.851 16.481 10.963 16.502 11.078 16.519 C 11.192 16.536 11.309 16.549 11.428 16.558 C 11.547 16.566 11.667 16.571 11.789 16.571 C 11.808 16.571 11.828 16.571 11.847 16.571 C 11.866 16.571 11.885 16.57 11.904 16.57 C 11.923 16.569 11.943 16.569 11.962 16.568 C 11.981 16.567 12 16.566 12.019 16.565 L 12.158 16.565 L 12.988 16.563 L 13.402 16.562 L 13.817 16.561 C 13.819 16.561 13.821 16.561 13.823 16.561 C 13.825 16.561 13.827 16.561 13.83 16.561 C 13.832 16.561 13.834 16.561 13.837 16.561 C 13.839 16.561 13.841 16.561 13.844 16.561 C 13.902 16.561 13.959 16.556 14.015 16.545 C 14.07 16.535 14.123 16.52 14.175 16.5 C 14.226 16.48 14.275 16.456 14.321 16.428 C 14.368 16.4 14.41 16.368 14.451 16.332 C 14.493 16.283 14.532 16.23 14.566 16.174 C 14.599 16.117 14.628 16.057 14.652 15.995 C 14.675 15.932 14.694 15.867 14.706 15.8 C 14.718 15.732 14.725 15.663 14.725 15.592 C 14.725 15.585 14.725 15.579 14.725 15.573 C 14.725 15.566 14.724 15.56 14.724 15.554 C 14.724 15.547 14.724 15.541 14.723 15.535 C 14.723 15.53 14.722 15.524 14.722 15.519 L 14.714 15.451 L 14.706 15.384 L 14.69 15.248 C 14.675 15.024 14.651 14.804 14.618 14.588 C 14.585 14.372 14.543 14.16 14.493 13.952 C 14.442 13.744 14.382 13.54 14.315 13.341 C 14.247 13.141 14.175 12.956 14.094 12.77 L 14.097 12.778 L 14.101 12.789 L 14.105 12.799 Z M 14.451 16.333 L 14.452 16.333 L 14.452 16.332 C 14.452 16.332 14.452 16.332 14.452 16.333 C 14.451 16.333 14.451 16.333 14.451 16.333 Z M 12.09 15.065 C 12.073 15.066 12.054 15.067 12.035 15.068 C 12.017 15.069 11.997 15.07 11.978 15.07 C 11.958 15.071 11.938 15.071 11.917 15.072 C 11.897 15.072 11.877 15.072 11.856 15.072 C 11.773 15.072 11.69 15.069 11.607 15.064 C 11.525 15.058 11.443 15.051 11.362 15.04 C 11.281 15.029 11.201 15.016 11.122 15 C 11.043 14.984 10.965 14.966 10.887 14.945 L 10.894 14.946 L 10.9 14.948 L 10.907 14.949 L 10.909 14.95 C 10.786 14.898 10.671 14.837 10.56 14.766 C 10.45 14.694 10.347 14.613 10.253 14.523 C 10.159 14.434 10.074 14.336 9.998 14.23 C 9.923 14.125 9.857 14.013 9.802 13.894 L 9.801 13.891 L 9.8 13.887 L 9.799 13.884 L 9.797 13.881 C 9.74 13.765 9.688 13.644 9.641 13.519 C 9.594 13.395 9.553 13.266 9.517 13.134 C 9.482 13.001 9.452 12.866 9.429 12.727 C 9.406 12.589 9.39 12.448 9.38 12.305 L 9.38 12.295 L 9.379 12.292 C 9.427 12.291 9.474 12.29 9.522 12.289 C 9.569 12.289 9.617 12.288 9.664 12.287 C 9.712 12.286 9.759 12.285 9.807 12.283 C 9.854 12.282 9.902 12.281 9.949 12.28 L 10.109 12.276 L 10.586 12.267 C 10.602 12.265 10.618 12.264 10.635 12.263 C 10.651 12.262 10.669 12.261 10.686 12.261 C 10.704 12.26 10.721 12.26 10.739 12.26 C 10.757 12.259 10.776 12.259 10.794 12.259 C 10.896 12.259 10.996 12.265 11.094 12.275 C 11.192 12.286 11.289 12.302 11.384 12.322 C 11.48 12.343 11.573 12.368 11.664 12.398 C 11.753 12.427 11.838 12.46 11.921 12.497 L 11.921 12.498 L 11.919 12.497 L 11.916 12.496 C 12.008 12.553 12.095 12.615 12.177 12.683 C 12.26 12.752 12.337 12.827 12.407 12.906 C 12.478 12.986 12.543 13.071 12.601 13.16 C 12.659 13.249 12.71 13.343 12.753 13.441 L 12.755 13.444 L 12.756 13.447 L 12.757 13.451 L 12.758 13.454 C 12.81 13.572 12.858 13.694 12.901 13.82 C 12.944 13.946 12.983 14.077 13.017 14.21 C 13.051 14.343 13.08 14.48 13.104 14.619 C 13.127 14.758 13.145 14.899 13.157 15.042 L 13.158 15.047 L 13.158 15.061 L 12.09 15.065 Z M 13.158 15.061 L 13.158 15.047 L 13.157 15.042 C 13.145 14.899 13.127 14.758 13.104 14.619 C 13.08 14.48 13.051 14.343 13.017 14.21 C 12.983 14.077 12.944 13.946 12.901 13.82 C 12.858 13.694 12.81 13.572 12.758 13.454 L 12.757 13.451 L 12.756 13.447 L 12.755 13.444 L 12.753 13.441 C 12.71 13.343 12.659 13.249 12.601 13.16 C 12.543 13.071 12.478 12.986 12.407 12.906 C 12.337 12.827 12.26 12.752 12.177 12.683 C 12.095 12.615 12.007 12.552 11.914 12.495 L 11.919 12.497 C 11.837 12.46 11.752 12.427 11.664 12.398 C 11.573 12.368 11.48 12.343 11.384 12.322 C 11.289 12.302 11.192 12.286 11.094 12.275 C 10.996 12.265 10.896 12.259 10.794 12.259 C 10.776 12.259 10.757 12.259 10.739 12.26 C 10.721 12.26 10.704 12.26 10.686 12.261 C 10.669 12.261 10.651 12.262 10.635 12.263 C 10.618 12.264 10.602 12.265 10.586 12.267 L 10.109 12.276 L 9.949 12.28 C 9.902 12.281 9.854 12.282 9.807 12.283 C 9.759 12.285 9.712 12.286 9.664 12.287 C 9.617 12.288 9.569 12.289 9.522 12.289 C 9.474 12.29 9.427 12.291 9.379 12.292 L 9.38 12.295 L 9.38 12.305 C 9.39 12.448 9.406 12.589 9.429 12.727 C 9.452 12.866 9.482 13.001 9.517 13.134 C 9.553 13.266 9.594 13.395 9.641 13.519 C 9.688 13.644 9.74 13.765 9.797 13.881 L 9.799 13.884 L 9.8 13.887 L 9.801 13.891 L 9.802 13.894 C 9.857 14.013 9.923 14.125 9.998 14.23 C 10.074 14.336 10.159 14.434 10.253 14.523 C 10.347 14.613 10.45 14.694 10.56 14.766 C 10.671 14.837 10.789 14.899 10.913 14.951 L 10.907 14.949 L 10.9 14.948 L 10.894 14.946 L 10.89 14.946 C 10.967 14.966 11.043 14.984 11.122 15 C 11.201 15.016 11.281 15.029 11.362 15.04 C 11.443 15.051 11.525 15.058 11.607 15.064 C 11.69 15.069 11.773 15.072 11.856 15.072 C 11.877 15.072 11.897 15.072 11.917 15.072 C 11.938 15.071 11.958 15.071 11.978 15.07 C 11.997 15.07 12.017 15.069 12.035 15.068 C 12.054 15.067 12.073 15.066 12.09 15.065 L 13.158 15.061 Z M 23.768 11.012 L 23.768 11.013 C 23.809 11.055 23.845 11.099 23.878 11.147 C 23.911 11.196 23.939 11.248 23.963 11.302 C 23.987 11.356 24.007 11.413 24.021 11.472 C 24.034 11.527 24.043 11.583 24.046 11.641 L 24.047 11.644 L 24.047 11.655 C 24.049 11.677 24.049 11.698 24.05 11.72 C 24.051 11.747 24.052 11.774 24.053 11.801 C 24.054 11.828 24.054 11.855 24.054 11.882 C 24.055 11.909 24.055 11.936 24.055 11.963 C 24.055 12.199 24.041 12.432 24.015 12.659 C 23.989 12.887 23.95 13.111 23.899 13.328 C 23.848 13.546 23.786 13.758 23.712 13.963 C 23.639 14.168 23.555 14.365 23.461 14.554 L 23.459 14.56 L 23.455 14.57 L 23.452 14.575 C 23.354 14.779 23.237 14.972 23.104 15.152 C 22.97 15.332 22.819 15.5 22.653 15.652 C 22.488 15.805 22.307 15.942 22.113 16.062 C 21.919 16.183 21.713 16.286 21.495 16.369 L 21.502 16.368 L 21.509 16.366 C 21.515 16.364 21.52 16.363 21.526 16.361 L 21.518 16.364 L 21.509 16.366 C 21.406 16.398 21.3 16.425 21.194 16.45 C 21.082 16.476 20.968 16.498 20.853 16.516 C 20.738 16.534 20.622 16.547 20.504 16.556 C 20.386 16.565 20.267 16.569 20.147 16.569 C 20.13 16.569 20.113 16.569 20.096 16.569 C 20.08 16.569 20.063 16.569 20.047 16.568 C 20.031 16.568 20.015 16.567 19.999 16.567 C 19.984 16.566 19.969 16.566 19.954 16.565 L 19.491 16.564 L 18.099 16.561 L 18.096 16.561 C 18.037 16.558 17.979 16.551 17.923 16.539 C 17.866 16.527 17.811 16.512 17.758 16.492 C 17.706 16.473 17.655 16.45 17.606 16.424 C 17.558 16.397 17.511 16.367 17.467 16.334 L 17.467 16.333 L 17.466 16.333 C 17.422 16.293 17.382 16.248 17.347 16.199 C 17.312 16.15 17.282 16.098 17.257 16.042 C 17.233 15.987 17.213 15.929 17.2 15.868 C 17.187 15.808 17.18 15.745 17.18 15.68 C 17.18 15.666 17.181 15.651 17.181 15.637 C 17.182 15.622 17.183 15.608 17.184 15.594 C 17.186 15.58 17.187 15.566 17.189 15.553 C 17.191 15.54 17.194 15.527 17.196 15.514 L 17.205 15.445 L 17.213 15.375 L 17.229 15.237 L 17.23 15.232 L 17.23 15.215 C 17.245 14.998 17.268 14.783 17.301 14.571 C 17.333 14.36 17.374 14.153 17.423 13.95 C 17.473 13.748 17.53 13.55 17.595 13.359 C 17.66 13.167 17.732 12.982 17.81 12.803 L 17.813 12.798 L 17.815 12.792 L 17.817 12.787 L 17.819 12.781 C 17.897 12.613 17.988 12.451 18.09 12.298 C 18.192 12.146 18.306 12.001 18.43 11.866 C 18.555 11.731 18.691 11.604 18.836 11.488 C 18.982 11.373 19.134 11.269 19.296 11.176 L 19.295 11.176 L 19.289 11.178 L 19.283 11.181 L 19.276 11.184 C 19.416 11.117 19.559 11.056 19.706 11.004 C 19.854 10.952 20.005 10.908 20.159 10.872 C 20.313 10.836 20.471 10.809 20.631 10.79 C 20.791 10.772 20.954 10.762 21.119 10.762 C 21.14 10.762 21.161 10.762 21.181 10.763 C 21.202 10.763 21.222 10.764 21.242 10.764 C 21.262 10.765 21.282 10.765 21.301 10.766 C 21.32 10.767 21.338 10.768 21.356 10.769 L 21.815 10.777 L 22.273 10.785 L 22.732 10.794 L 23.19 10.802 L 23.192 10.802 C 23.236 10.804 23.278 10.808 23.32 10.815 C 23.362 10.821 23.403 10.83 23.442 10.842 C 23.482 10.853 23.521 10.867 23.558 10.882 C 23.595 10.898 23.631 10.915 23.665 10.935 L 23.666 10.936 L 23.667 10.936 L 23.668 10.937 C 23.677 10.943 23.686 10.949 23.694 10.955 C 23.703 10.961 23.711 10.968 23.72 10.974 C 23.728 10.98 23.736 10.987 23.744 10.993 C 23.753 11 23.76 11.005 23.767 11.012 L 23.768 11.012 Z M 23.768 11.012 L 23.767 11.012 C 23.768 11.012 23.768 11.012 23.768 11.013 L 23.768 11.012 Z M 23.744 10.993 C 23.736 10.987 23.728 10.98 23.72 10.974 C 23.711 10.968 23.703 10.961 23.694 10.955 C 23.686 10.949 23.677 10.943 23.668 10.937 L 23.667 10.936 L 23.666 10.936 L 23.665 10.935 C 23.631 10.915 23.595 10.898 23.558 10.882 C 23.521 10.867 23.482 10.853 23.442 10.842 C 23.403 10.83 23.362 10.821 23.32 10.815 C 23.278 10.808 23.236 10.804 23.192 10.802 L 23.19 10.802 L 22.732 10.794 L 22.273 10.785 L 21.815 10.777 L 21.356 10.769 C 21.338 10.768 21.32 10.767 21.301 10.766 C 21.282 10.765 21.262 10.765 21.242 10.764 C 21.222 10.764 21.202 10.763 21.181 10.763 C 21.161 10.762 21.14 10.762 21.119 10.762 C 20.954 10.762 20.791 10.772 20.631 10.79 C 20.471 10.809 20.313 10.836 20.159 10.872 C 20.005 10.908 19.854 10.952 19.706 11.004 C 19.564 11.054 19.426 11.113 19.29 11.178 L 19.295 11.176 L 19.301 11.173 C 19.137 11.267 18.982 11.373 18.836 11.488 C 18.691 11.604 18.555 11.731 18.43 11.866 C 18.306 12.001 18.192 12.146 18.09 12.298 C 17.988 12.451 17.897 12.613 17.819 12.781 L 17.817 12.787 L 17.815 12.792 L 17.813 12.798 L 17.81 12.803 C 17.732 12.982 17.66 13.167 17.595 13.359 C 17.53 13.55 17.473 13.748 17.423 13.95 C 17.374 14.153 17.333 14.36 17.301 14.571 C 17.268 14.783 17.245 14.998 17.23 15.215 L 17.23 15.232 L 17.229 15.237 L 17.213 15.375 L 17.205 15.445 L 17.196 15.514 C 17.194 15.527 17.191 15.54 17.189 15.553 C 17.187 15.566 17.186 15.58 17.184 15.594 C 17.183 15.608 17.182 15.622 17.181 15.637 C 17.181 15.651 17.18 15.666 17.18 15.68 C 17.18 15.745 17.187 15.808 17.2 15.868 C 17.213 15.929 17.233 15.987 17.257 16.042 C 17.282 16.098 17.312 16.15 17.347 16.199 C 17.382 16.248 17.422 16.293 17.466 16.333 L 17.467 16.333 L 17.467 16.334 C 17.511 16.367 17.558 16.397 17.606 16.424 C 17.655 16.45 17.706 16.473 17.758 16.492 C 17.811 16.512 17.866 16.527 17.923 16.539 C 17.979 16.551 18.037 16.558 18.096 16.561 L 18.099 16.561 L 19.491 16.564 L 19.954 16.565 C 19.969 16.566 19.984 16.566 19.999 16.567 C 20.015 16.567 20.031 16.568 20.047 16.568 C 20.063 16.569 20.08 16.569 20.096 16.569 C 20.113 16.569 20.13 16.569 20.147 16.569 C 20.267 16.569 20.386 16.565 20.504 16.556 C 20.622 16.547 20.738 16.534 20.853 16.516 C 20.968 16.498 21.082 16.476 21.194 16.45 C 21.3 16.425 21.402 16.399 21.503 16.368 L 21.502 16.368 L 21.493 16.37 C 21.712 16.286 21.919 16.183 22.113 16.062 C 22.307 15.942 22.488 15.805 22.653 15.652 C 22.819 15.5 22.97 15.332 23.104 15.152 C 23.237 14.972 23.354 14.779 23.452 14.575 L 23.455 14.57 L 23.459 14.56 L 23.461 14.554 C 23.555 14.365 23.639 14.168 23.712 13.963 C 23.786 13.758 23.848 13.546 23.899 13.328 C 23.95 13.111 23.989 12.887 24.015 12.659 C 24.041 12.432 24.055 12.199 24.055 11.963 C 24.055 11.936 24.055 11.909 24.054 11.882 C 24.054 11.855 24.054 11.828 24.053 11.801 C 24.052 11.774 24.051 11.747 24.05 11.72 C 24.049 11.698 24.048 11.677 24.047 11.655 L 24.047 11.654 C 24.046 11.649 24.046 11.645 24.046 11.64 C 24.042 11.582 24.034 11.526 24.021 11.472 C 24.007 11.413 23.987 11.356 23.963 11.302 C 23.939 11.248 23.911 11.196 23.878 11.147 C 23.845 11.099 23.808 11.054 23.767 11.012 C 23.76 11.006 23.753 11 23.744 10.993 Z M 21.515 16.365 L 21.518 16.364 L 21.521 16.363 C 21.519 16.363 21.519 16.363 21.515 16.365 Z M 24.046 11.643 C 24.047 11.645 24.047 11.647 24.047 11.649 L 24.047 11.644 L 24.046 11.643 Z M 22.119 13.883 C 22.117 13.888 22.115 13.893 22.112 13.897 C 22.17 13.779 22.223 13.657 22.271 13.533 C 22.32 13.404 22.362 13.272 22.399 13.138 C 22.435 13.003 22.465 12.865 22.488 12.725 C 22.511 12.584 22.528 12.44 22.538 12.294 C 22.491 12.293 22.444 12.292 22.397 12.291 C 22.35 12.291 22.302 12.29 22.255 12.289 C 22.208 12.288 22.161 12.287 22.113 12.285 C 22.066 12.284 22.018 12.283 21.97 12.282 L 21.81 12.279 L 21.649 12.276 L 21.489 12.272 L 21.332 12.269 C 21.334 12.27 21.336 12.27 21.338 12.27 L 21.333 12.27 L 21.332 12.27 C 21.318 12.269 21.303 12.268 21.288 12.267 C 21.272 12.266 21.255 12.265 21.238 12.265 C 21.222 12.264 21.205 12.264 21.188 12.264 C 21.172 12.263 21.155 12.263 21.138 12.263 C 21.036 12.263 20.934 12.268 20.835 12.279 C 20.735 12.289 20.638 12.305 20.542 12.325 C 20.447 12.345 20.354 12.37 20.264 12.399 C 20.174 12.428 20.087 12.461 20.003 12.498 L 20.001 12.499 L 19.999 12.501 L 19.997 12.502 L 19.994 12.503 C 19.904 12.559 19.818 12.621 19.737 12.689 C 19.656 12.758 19.58 12.832 19.509 12.912 C 19.438 12.992 19.374 13.078 19.315 13.169 C 19.257 13.26 19.204 13.356 19.158 13.457 L 19.162 13.448 L 19.165 13.44 L 19.168 13.431 L 19.169 13.429 C 19.115 13.553 19.066 13.678 19.021 13.809 C 18.976 13.94 18.937 14.074 18.902 14.211 C 18.868 14.347 18.838 14.487 18.814 14.629 C 18.791 14.771 18.772 14.916 18.759 15.064 L 19.01 15.064 L 19.261 15.065 L 19.512 15.065 L 19.762 15.066 C 19.758 15.066 19.755 15.065 19.751 15.065 L 19.76 15.065 L 19.762 15.065 C 19.781 15.066 19.801 15.068 19.82 15.069 C 19.843 15.07 19.866 15.071 19.889 15.072 C 19.912 15.072 19.935 15.073 19.958 15.073 C 19.981 15.074 20.005 15.074 20.028 15.074 C 20.115 15.074 20.201 15.071 20.286 15.066 C 20.371 15.06 20.454 15.052 20.536 15.042 C 20.618 15.031 20.698 15.019 20.776 15.004 C 20.855 14.989 20.931 14.971 21.004 14.952 L 21.008 14.95 L 21.011 14.949 L 21.015 14.948 L 21.018 14.947 C 21.14 14.897 21.255 14.837 21.363 14.766 C 21.472 14.695 21.573 14.613 21.666 14.523 C 21.76 14.433 21.845 14.334 21.921 14.227 C 21.992 14.127 22.054 14.021 22.107 13.908 L 22.109 13.903 L 22.112 13.897 L 22.115 13.89 L 22.118 13.884 L 22.118 13.883 L 22.119 13.883 Z M 22.118 13.883 L 22.118 13.884 L 22.115 13.89 L 22.112 13.897 L 22.109 13.903 L 22.108 13.906 C 22.112 13.898 22.115 13.891 22.119 13.883 L 22.118 13.883 Z M 21.921 14.227 C 21.845 14.334 21.76 14.433 21.666 14.523 C 21.573 14.613 21.472 14.695 21.363 14.766 C 21.255 14.837 21.14 14.897 21.018 14.947 L 21.015 14.948 L 21.011 14.949 L 21.008 14.95 L 21.004 14.952 C 20.931 14.971 20.855 14.989 20.776 15.004 C 20.698 15.019 20.618 15.031 20.536 15.042 C 20.454 15.052 20.371 15.06 20.286 15.066 C 20.201 15.071 20.115 15.074 20.028 15.074 C 20.005 15.074 19.981 15.074 19.958 15.073 C 19.935 15.073 19.912 15.072 19.889 15.072 C 19.866 15.071 19.843 15.07 19.82 15.069 C 19.801 15.068 19.782 15.067 19.763 15.066 L 19.764 15.066 L 19.512 15.065 L 19.261 15.065 L 19.01 15.064 L 18.759 15.064 C 18.772 14.916 18.791 14.771 18.814 14.629 C 18.838 14.487 18.868 14.347 18.902 14.211 C 18.937 14.074 18.976 13.94 19.021 13.809 C 19.066 13.678 19.116 13.549 19.171 13.423 L 19.168 13.431 L 19.165 13.44 L 19.163 13.445 C 19.208 13.349 19.259 13.256 19.315 13.169 C 19.374 13.078 19.438 12.992 19.509 12.912 C 19.58 12.832 19.656 12.758 19.737 12.689 C 19.818 12.621 19.904 12.559 19.994 12.503 L 19.997 12.502 L 19.999 12.501 L 20.001 12.499 L 20.003 12.498 C 20.087 12.461 20.174 12.428 20.264 12.399 C 20.354 12.37 20.447 12.345 20.542 12.325 C 20.638 12.305 20.735 12.289 20.835 12.279 C 20.934 12.268 21.036 12.263 21.138 12.263 C 21.155 12.263 21.172 12.263 21.188 12.264 C 21.205 12.264 21.222 12.264 21.238 12.265 C 21.255 12.265 21.272 12.266 21.288 12.267 C 21.303 12.268 21.317 12.269 21.332 12.269 L 21.33 12.269 L 21.331 12.269 L 21.489 12.272 L 21.649 12.276 L 21.81 12.279 L 21.97 12.282 C 22.018 12.283 22.066 12.284 22.113 12.285 C 22.161 12.287 22.208 12.288 22.255 12.289 C 22.302 12.29 22.35 12.291 22.397 12.291 C 22.444 12.292 22.491 12.293 22.538 12.294 C 22.528 12.44 22.511 12.584 22.488 12.725 C 22.465 12.865 22.435 13.003 22.399 13.138 C 22.362 13.272 22.32 13.404 22.271 13.533 C 22.222 13.661 22.167 13.787 22.107 13.909 C 22.054 14.021 21.992 14.128 21.921 14.227 Z M 19.76 15.065 L 19.758 15.065 C 19.759 15.065 19.757 15.065 19.76 15.065 Z" style="stroke: white; stroke-width: 0.3px; fill-rule: evenodd; paint-order: fill; fill: url(&quot;#gradient-3&quot;); mix-blend-mode: multiply;"/>
  </g>
</svg>
