<?xml version="1.0" encoding="utf-8"?>
<!-- Uploaded to: SVG Repo, www.svgrepo.com, Generator: SVG Repo Mixer Tools -->
<svg fill="#000000" width="800px" height="800px" viewBox="0 0 32 32" version="1.1" xmlns="http://www.w3.org/2000/svg">
<title>alien-head</title>
<path d="M15.959 1.25c-6.643 0-12.335 6.186-12.335 11.25 0 4.662 10.57 16.648 11.775 18 0.138 0.154 0.337 0.25 0.559 0.25h0.001c0 0 0.001 0 0.001 0 0.221 0 0.419-0.095 0.556-0.247l0.001-0.001c1.214-1.352 11.858-13.339 11.858-18.002 0-5.064-5.729-11.25-12.416-11.25zM15.961 28.869c-3.48-3.984-10.837-13.091-10.837-16.369 0-3.926 4.55-9.75 10.835-9.75 5.777 0 10.916 5.452 10.916 9.75 0 3.276-7.412 12.385-10.914 16.369zM14.107 12.803c-0.319-0.695-0.833-1.255-1.473-1.621l-0.017-0.009c-0.54-0.258-1.174-0.41-1.842-0.41-0.075 0-0.15 0.002-0.224 0.006l0.010-0-1.857 0.034c-0.162 0.010-0.312 0.055-0.444 0.127l0.006-0.003c-0.050 0.031-0.093 0.064-0.132 0.102l0-0c-0.144 0.158-0.24 0.362-0.262 0.589l-0 0.004c-0.006 0.097-0.009 0.21-0.009 0.325 0 0.948 0.219 1.845 0.608 2.643l-0.016-0.036c0.402 0.837 1.096 1.481 1.947 1.809l0.024 0.008c0.408 0.127 0.877 0.2 1.363 0.2 0.077 0 0.154-0.002 0.23-0.006l-0.011 0h0.15l1.659-0.004c0.008 0 0.017 0 0.027 0 0.233 0 0.446-0.086 0.608-0.229l-0.001 0.001c0.17-0.198 0.274-0.457 0.274-0.741 0-0.026-0.001-0.051-0.003-0.076l0 0.003-0.032-0.271c-0.058-0.896-0.267-1.729-0.603-2.494l0.019 0.047zM12.090 15.065c-0.070 0.005-0.152 0.007-0.234 0.007-0.335 0-0.66-0.044-0.969-0.127l0.026 0.006c-0.499-0.205-0.892-0.583-1.111-1.057l-0.005-0.013c-0.229-0.463-0.38-1.004-0.417-1.576l-0.001-0.013c0.19-0.003 0.38-0.007 0.57-0.012l0.637-0.013c0.062-0.005 0.134-0.008 0.208-0.008 0.405 0 0.79 0.087 1.137 0.243l-0.017-0.007c0.372 0.227 0.664 0.555 0.839 0.946l0.005 0.013c0.207 0.47 0.35 1.016 0.399 1.588l0.001 0.019zM23.768 11.013c-0.031-0.027-0.065-0.053-0.1-0.076l-0.003-0.002c-0.137-0.078-0.299-0.126-0.473-0.133l-0.002-0-1.834-0.033c-0.071-0.004-0.153-0.007-0.237-0.007-0.661 0-1.286 0.152-1.843 0.422l0.025-0.011c-0.657 0.376-1.171 0.935-1.482 1.608l-0.009 0.022c-0.315 0.714-0.523 1.542-0.58 2.412l-0.001 0.022-0.033 0.277c-0.010 0.050-0.016 0.108-0.016 0.166 0 0.258 0.11 0.491 0.286 0.653l0.001 0.001c0.175 0.132 0.392 0.215 0.629 0.227l0.003 0 1.855 0.004c0.058 0.003 0.125 0.004 0.193 0.004 0.48 0 0.943-0.073 1.379-0.208l-0.033 0.009c0.874-0.336 1.567-0.98 1.959-1.795l0.009-0.021c0.375-0.757 0.594-1.648 0.594-2.591 0-0.108-0.003-0.216-0.009-0.323l0.001 0.015c-0.013-0.251-0.117-0.476-0.28-0.643l0 0zM22.119 13.883c-0.224 0.488-0.616 0.865-1.101 1.064l-0.014 0.005c-0.293 0.078-0.629 0.122-0.976 0.122-0.093 0-0.185-0.003-0.277-0.009l0.012 0.001-1.004-0.002c0.051-0.591 0.192-1.137 0.412-1.641l-0.013 0.034c0.183-0.404 0.474-0.731 0.836-0.954l0.009-0.005c0.335-0.148 0.725-0.235 1.135-0.235 0.067 0 0.134 0.002 0.2 0.007l-0.009-0.001 0.641 0.013q0.287 0.007 0.568 0.012c-0.039 0.585-0.189 1.126-0.431 1.615l0.011-0.025z"></path>
</svg>